HIERARCHY
ROOT newVegas:Hips
{
	OFFSET 0.000000 96.479958 0.000000
	CHANNELS 6 Xposition Yposition Zposition Xrotation Yrotation Zrotation
	JOINT newVegas:Pelvis
	{
		OFFSET 0.000000 0.000000 0.000000
		CHANNELS 3 Xrotation Yrotation Zrotation
		JOINT newVegas:LeftUpLeg
		{
			OFFSET 18.735201 -5.666702 -4.541200
			CHANNELS 3 Xrotation Yrotation Zrotation
			JOINT newVegas:LeftLeg
			{
				OFFSET -0.021200 -31.938179 0.493100
				CHANNELS 3 Xrotation Yrotation Zrotation
				JOINT newVegas:LeftFoot
				{
					OFFSET 0.021200 -31.938179 -4.336299
					CHANNELS 3 Xrotation Yrotation Zrotation
					JOINT newVegas:LeftToeBase
					{
						OFFSET 0.943001 -26.722000 15.023500
						CHANNELS 3 Xrotation Yrotation Zrotation
						End Site
						{
							OFFSET 0.000000 30.670183 0.000000
						}
					}
				}
				JOINT newVegas:Left_PantLeg
				{
					OFFSET 0.663870 -9.044666 -1.108900
					CHANNELS 3 Xrotation Yrotation Zrotation
					End Site
					{
						OFFSET 1.415995 20.635357 0.000000
					}
				}
			}
		}
		JOINT newVegas:RightUpLeg
		{
			OFFSET -18.735201 -5.666702 -4.541200
			CHANNELS 3 Xrotation Yrotation Zrotation
			JOINT newVegas:RightLeg
			{
				OFFSET 0.018946 -31.938133 0.493100
				CHANNELS 3 Xrotation Yrotation Zrotation
				JOINT newVegas:RightFoot
				{
					OFFSET -0.018946 -31.938126 -4.336299
					CHANNELS 3 Xrotation Yrotation Zrotation
					JOINT newVegas:RightToeBase
					{
						OFFSET -0.943001 -26.722004 15.023500
						CHANNELS 3 Xrotation Yrotation Zrotation
						End Site
						{
							OFFSET 0.000000 30.670187 0.000000
						}
					}
				}
				JOINT newVegas:Right_PantLeg
				{
					OFFSET -0.661674 -9.044716 -1.108900
					CHANNELS 3 Xrotation Yrotation Zrotation
					End Site
					{
						OFFSET -1.415958 20.635269 0.000000
					}
				}
			}
		}
	}
	JOINT newVegas:Spine
	{
		OFFSET 0.000000 10.199997 -0.299500
		CHANNELS 3 Xrotation Yrotation Zrotation
		JOINT newVegas:Spine1
		{
			OFFSET 0.000000 11.900002 -1.516600
			CHANNELS 3 Xrotation Yrotation Zrotation
			JOINT newVegas:Spine2
			{
				OFFSET 0.000000 13.600006 -2.842500
				CHANNELS 3 Xrotation Yrotation Zrotation
				JOINT newVegas:Neck
				{
					OFFSET 0.000000 9.624100 -2.890100
					CHANNELS 3 Xrotation Yrotation Zrotation
					JOINT newVegas:Head
					{
						OFFSET 0.000000 14.068802 -1.351900
						CHANNELS 3 Xrotation Yrotation Zrotation
						JOINT newVegas:Hair_Back
						{
							OFFSET 0.000000 3.231903 -17.524799
							CHANNELS 3 Xrotation Yrotation Zrotation
							End Site
							{
								OFFSET 0.000000 19.849884 0.000000
							}
						}
						JOINT newVegas:Hair_Front
						{
							OFFSET 0.000000 31.260406 4.573800
							CHANNELS 3 Xrotation Yrotation Zrotation
							JOINT newVegas:Hair_Front1
							{
								OFFSET 0.000000 2.284103 11.993300
								CHANNELS 3 Xrotation Yrotation Zrotation
								JOINT newVegas:Hair_Front2
								{
									OFFSET 0.000000 2.284103 11.993300
									CHANNELS 3 Xrotation Yrotation Zrotation
									End Site
									{
										OFFSET 0.000000 12.208862 0.000000
									}
								}
							}
						}
						JOINT newVegas:Jowel
						{
							OFFSET 0.000000 -7.458206 6.864100
							CHANNELS 3 Xrotation Yrotation Zrotation
							End Site
							{
								OFFSET 0.000000 19.849884 0.000000
							}
						}
					}
				}
				JOINT newVegas:LeftShoulder
				{
					OFFSET 15.263000 10.923401 -0.547700
					CHANNELS 3 Xrotation Yrotation Zrotation
					JOINT newVegas:LeftArm
					{
						OFFSET 25.438599 -2.830597 -13.032500
						CHANNELS 3 Xrotation Yrotation Zrotation
						JOINT newVegas:LeftForeArm
						{
							OFFSET 29.960503 0.000000 0.000000
							CHANNELS 3 Xrotation Yrotation Zrotation
							JOINT newVegas:LeftHand
							{
								OFFSET 27.849251 0.000000 0.000000
								CHANNELS 3 Xrotation Yrotation Zrotation
								JOINT newVegas:LeftHandThumb1
								{
									OFFSET 4.487587 -3.305161 6.305391
									CHANNELS 3 Xrotation Yrotation Zrotation
									JOINT newVegas:LeftHandThumb2
									{
										OFFSET 5.480453 -3.164139 3.164143
										CHANNELS 3 Xrotation Yrotation Zrotation
										JOINT newVegas:LeftHandThumb3
										{
											OFFSET 5.159721 -2.978973 2.978967
											CHANNELS 3 Xrotation Yrotation Zrotation
											End Site
											{
												OFFSET 2.494507 5.926697 1.738678
											}
										}
									}
								}
								JOINT newVegas:LeftHandIndex1
								{
									OFFSET 18.578728 -0.527832 5.208049
									CHANNELS 3 Xrotation Yrotation Zrotation
									JOINT newVegas:LeftHandIndex2
									{
										OFFSET 3.192009 0.000000 0.000000
										CHANNELS 3 Xrotation Yrotation Zrotation
										JOINT newVegas:LeftHandIndex3
										{
											OFFSET 3.835129 0.000000 0.000000
											CHANNELS 3 Xrotation Yrotation Zrotation
											End Site
											{
												OFFSET -0.034599 3.816971 0.371180
											}
										}
									}
								}
								JOINT newVegas:LeftHandMiddle1
								{
									OFFSET 18.476105 0.000000 0.000000
									CHANNELS 3 Xrotation Yrotation Zrotation
									JOINT newVegas:LeftHandMiddle2
									{
										OFFSET 3.324875 0.000000 0.000000
										CHANNELS 3 Xrotation Yrotation Zrotation
										JOINT newVegas:LeftHandMiddle3
										{
											OFFSET 4.596550 0.000000 0.000000
											CHANNELS 3 Xrotation Yrotation Zrotation
											End Site
											{
												OFFSET 0.057701 4.578827 0.399218
											}
										}
									}
								}
								JOINT newVegas:LeftHandRing1
								{
									OFFSET 17.732719 0.121887 -4.201567
									CHANNELS 3 Xrotation Yrotation Zrotation
									JOINT newVegas:LeftHandRing2
									{
										OFFSET 2.733170 0.000000 0.000000
										CHANNELS 3 Xrotation Yrotation Zrotation
										JOINT newVegas:LeftHandRing3
										{
											OFFSET 3.178268 0.000000 0.000000
											CHANNELS 3 Xrotation Yrotation Zrotation
											End Site
											{
												OFFSET 0.119102 3.170624 0.185394
											}
										}
									}
								}
								JOINT newVegas:LeftHandPinky1
								{
									OFFSET 15.989624 -0.606689 -7.535461
									CHANNELS 3 Xrotation Yrotation Zrotation
									JOINT newVegas:LeftHandPinky2
									{
										OFFSET 2.538986 0.000000 0.000000
										CHANNELS 3 Xrotation Yrotation Zrotation
										JOINT newVegas:LeftHandPinky3
										{
											OFFSET 2.593102 0.000000 0.000000
											CHANNELS 3 Xrotation Yrotation Zrotation
											End Site
											{
												OFFSET -0.150902 2.584198 0.152708
											}
										}
									}
								}
							}
							JOINT newVegas:Left_Sleeve
							{
								OFFSET 0.267448 -0.649796 0.577675
								CHANNELS 3 Xrotation Yrotation Zrotation
								End Site
								{
									OFFSET 0.000000 15.991241 0.000000
								}
							}
							JOINT newVegas:Left_CapeC
							{
								OFFSET 15.715958 -8.608795 -6.935905
								CHANNELS 3 Xrotation Yrotation Zrotation
								JOINT newVegas:Left_CapeC1
								{
									OFFSET 0.000000 -8.688499 0.000000
									CHANNELS 3 Xrotation Yrotation Zrotation
									End Site
									{
										OFFSET 0.000000 8.688499 0.000000
									}
								}
							}
						}
						JOINT newVegas:Left_CapeB
						{
							OFFSET 26.118385 -8.608795 -7.079235
							CHANNELS 3 Xrotation Yrotation Zrotation
							JOINT newVegas:Left_CapeB1
							{
								OFFSET 0.000000 -8.688499 0.000000
								CHANNELS 3 Xrotation Yrotation Zrotation
								End Site
								{
									OFFSET 0.000000 8.688499 0.000000
								}
							}
						}
						JOINT newVegas:Left_CapeA
						{
							OFFSET 5.115639 -8.608795 -10.395809
							CHANNELS 3 Xrotation Yrotation Zrotation
							JOINT newVegas:Left_CapeA1
							{
								OFFSET 0.000000 -8.688499 0.000000
								CHANNELS 3 Xrotation Yrotation Zrotation
								End Site
								{
									OFFSET 0.000000 8.688499 0.000000
								}
							}
						}
					}
				}
				JOINT newVegas:RightShoulder
				{
					OFFSET -15.263000 10.923401 -0.547700
					CHANNELS 3 Xrotation Yrotation Zrotation
					JOINT newVegas:RightArm
					{
						OFFSET -25.438599 -2.830597 -13.032500
						CHANNELS 3 Xrotation Yrotation Zrotation
						JOINT newVegas:RightForeArm
						{
							OFFSET -29.960503 0.000000 0.000000
							CHANNELS 3 Xrotation Yrotation Zrotation
							JOINT newVegas:RightHand
							{
								OFFSET -27.849251 0.000000 0.000000
								CHANNELS 3 Xrotation Yrotation Zrotation
								JOINT newVegas:RightHandThumb1
								{
									OFFSET -4.487587 -3.305161 6.305391
									CHANNELS 3 Xrotation Yrotation Zrotation
									JOINT newVegas:RightHandThumb2
									{
										OFFSET -5.480453 -3.164139 3.164143
										CHANNELS 3 Xrotation Yrotation Zrotation
										JOINT newVegas:RightHandThumb3
										{
											OFFSET -5.159721 -2.978973 2.978967
											CHANNELS 3 Xrotation Yrotation Zrotation
											End Site
											{
												OFFSET -2.494507 5.926697 1.738678
											}
										}
									}
								}
								JOINT newVegas:RightHandIndex1
								{
									OFFSET -18.578728 -0.527832 5.208049
									CHANNELS 3 Xrotation Yrotation Zrotation
									JOINT newVegas:RightHandIndex2
									{
										OFFSET -3.192009 0.000000 0.000000
										CHANNELS 3 Xrotation Yrotation Zrotation
										JOINT newVegas:RightHandIndex3
										{
											OFFSET -3.835129 0.000000 0.000000
											CHANNELS 3 Xrotation Yrotation Zrotation
											End Site
											{
												OFFSET 0.034599 3.816971 0.371180
											}
										}
									}
								}
								JOINT newVegas:RightHandMiddle1
								{
									OFFSET -18.476105 0.000000 0.000000
									CHANNELS 3 Xrotation Yrotation Zrotation
									JOINT newVegas:RightHandMiddle2
									{
										OFFSET -3.324875 0.000000 0.000000
										CHANNELS 3 Xrotation Yrotation Zrotation
										JOINT newVegas:RightHandMiddle3
										{
											OFFSET -4.596550 0.000000 0.000000
											CHANNELS 3 Xrotation Yrotation Zrotation
											End Site
											{
												OFFSET -0.057701 4.578827 0.399218
											}
										}
									}
								}
								JOINT newVegas:RightHandRing1
								{
									OFFSET -17.732719 0.121887 -4.201567
									CHANNELS 3 Xrotation Yrotation Zrotation
									JOINT newVegas:RightHandRing2
									{
										OFFSET -2.733170 0.000000 0.000000
										CHANNELS 3 Xrotation Yrotation Zrotation
										JOINT newVegas:RightHandRing3
										{
											OFFSET -3.178268 0.000000 0.000000
											CHANNELS 3 Xrotation Yrotation Zrotation
											End Site
											{
												OFFSET -0.119102 3.170624 0.185394
											}
										}
									}
								}
								JOINT newVegas:RightHandPinky1
								{
									OFFSET -15.989624 -0.606689 -7.535461
									CHANNELS 3 Xrotation Yrotation Zrotation
									JOINT newVegas:RightHandPinky2
									{
										OFFSET -2.538986 0.000000 0.000000
										CHANNELS 3 Xrotation Yrotation Zrotation
										JOINT newVegas:RightHandPinky3
										{
											OFFSET -2.593102 0.000000 0.000000
											CHANNELS 3 Xrotation Yrotation Zrotation
											End Site
											{
												OFFSET 0.150902 2.584198 0.152708
											}
										}
									}
								}
							}
							JOINT newVegas:Right_CapeC
							{
								OFFSET -15.715958 -8.608795 -6.935905
								CHANNELS 3 Xrotation Yrotation Zrotation
								JOINT newVegas:Right_CapeC1
								{
									OFFSET 0.000000 -8.688499 0.000000
									CHANNELS 3 Xrotation Yrotation Zrotation
									End Site
									{
										OFFSET 0.000000 8.688499 0.000000
									}
								}
							}
							JOINT newVegas:Right_Sleeve
							{
								OFFSET -0.267448 -0.649994 0.577675
								CHANNELS 3 Xrotation Yrotation Zrotation
								End Site
								{
									OFFSET 0.000000 15.991302 0.000000
								}
							}
						}
						JOINT newVegas:Right_CapeA
						{
							OFFSET -5.115540 -8.608795 -10.395824
							CHANNELS 3 Xrotation Yrotation Zrotation
							JOINT newVegas:Right_CapeA1
							{
								OFFSET 0.000000 -8.688499 0.000000
								CHANNELS 3 Xrotation Yrotation Zrotation
								End Site
								{
									OFFSET 0.000000 8.688499 0.000000
								}
							}
						}
						JOINT newVegas:Right_CapeB
						{
							OFFSET -26.118187 -8.608795 -7.079266
							CHANNELS 3 Xrotation Yrotation Zrotation
							JOINT newVegas:Right_CapeB1
							{
								OFFSET 0.000000 -8.688499 0.000000
								CHANNELS 3 Xrotation Yrotation Zrotation
								End Site
								{
									OFFSET 0.000000 8.688499 0.000000
								}
							}
						}
					}
				}
				JOINT newVegas:Left_Collar
				{
					OFFSET 18.625099 8.655502 8.828100
					CHANNELS 3 Xrotation Yrotation Zrotation
					JOINT newVegas:Left_Collar1
					{
						OFFSET 14.783401 10.540405 -1.259500
						CHANNELS 3 Xrotation Yrotation Zrotation
						End Site
						{
							OFFSET 0.000000 18.199875 0.000000
						}
					}
				}
				JOINT newVegas:Collar_Back
				{
					OFFSET 0.000000 15.630707 -20.132601
					CHANNELS 3 Xrotation Yrotation Zrotation
					End Site
					{
						OFFSET 0.000000 22.523010 0.000000
					}
				}
				JOINT newVegas:Left_Peck
				{
					OFFSET 17.239599 -5.132599 25.482599
					CHANNELS 3 Xrotation Yrotation Zrotation
					End Site
					{
						OFFSET 0.000000 22.523010 0.000000
					}
				}
				JOINT newVegas:Right_Peck
				{
					OFFSET -17.239599 -5.132202 25.482599
					CHANNELS 3 Xrotation Yrotation Zrotation
					End Site
					{
						OFFSET 0.000000 22.523010 0.000000
					}
				}
				JOINT newVegas:Right_Collar
				{
					OFFSET -18.625099 8.655792 8.828100
					CHANNELS 3 Xrotation Yrotation Zrotation
					JOINT newVegas:Right_Collar1
					{
						OFFSET -14.783401 10.539993 -1.259500
						CHANNELS 3 Xrotation Yrotation Zrotation
						End Site
						{
							OFFSET 0.000000 18.199631 0.000000
						}
					}
				}
			}
		}
		JOINT newVegas:Belly
		{
			OFFSET 0.000000 -6.540398 9.014299
			CHANNELS 3 Xrotation Yrotation Zrotation
			End Site
			{
				OFFSET 0.000000 11.566666 0.000000
			}
		}
	}
	JOINT newVegas:ElvisFacialAnim_Joint
	{
		OFFSET 1.000000 -95.330101 -8.825800
		CHANNELS 3 Xrotation Yrotation Zrotation
		End Site
		{
			OFFSET 0.000000 35.315800 0.000000
		}
	}
}
MOTION
Frames: 4
Frame Time: 0.033333
6.458639 140.846481 -9.226616 68.266948 9.870597 -5.837167 -0.000001 0.000000 0.000001 -40.314143 15.008545 35.901721 89.340520 -5.130564 -6.830285 15.303816 -0.685233 -11.869837 -0.000000 0.000002 -0.000000 -0.000000 -0.000001 -0.000000 -31.472999 -8.045943 -29.717422 76.506274 11.650073 8.742874 0.285891 2.915191 26.539979 -0.000000 0.000001 -0.000001 0.000002 -0.000001 0.000000 17.844376 -4.241956 -2.109299 -0.655674 -0.882467 1.816871 -0.631691 -0.816629 1.860062 -5.315668 -0.587962 -2.750862 -5.315636 -0.587961 -2.750867 -0.000001 0.000000 0.000000 -5.315645 -0.587956 -2.750867 -5.315658 -0.587966 -2.750864 0.000002 0.000000 0.000001 -0.000001 0.000000 -0.000000 0.632442 -5.256193 -6.889312 6.205706 -44.706996 -11.489579 0.000380 -98.585018 0.000366 39.421499 0.047601 11.527225 -6.256794 5.698468 7.394677 5.771051 14.502780 -0.848841 0.000002 0.000000 -0.000003 0.393286 2.982436 -9.095820 0.059111 0.902108 -7.497128 -0.000001 -0.000000 0.000001 0.090339 1.663684 -3.479590 0.084482 1.077448 -8.965711 -0.000004 -0.000001 0.000000 0.018116 0.841769 -12.592075 0.103996 1.194681 -9.950971 -0.000003 -0.000002 0.000000 0.952103 5.229351 -11.690349 0.035021 -3.259197 -7.114162 -0.000001 -0.000005 0.000001 -0.000001 0.000000 0.000000 -0.000001 0.000000 0.000000 -0.000002 0.000001 0.000001 -0.000002 0.000003 -0.000001 -0.000002 0.000003 0.000000 -0.000002 0.000003 -0.000001 -0.000002 0.000003 -0.000001 0.651623 5.334461 5.841343 -10.000153 50.548396 25.987029 0.000015 99.786455 -0.000005 34.150642 -20.544516 12.932622 -1.257526 0.666073 0.529801 -5.462561 -10.016551 -1.921169 0.000001 0.000000 0.000001 -0.002844 1.597083 0.198871 0.012995 -0.425337 3.492403 -0.000004 -0.000004 0.000000 0.000301 0.175721 -0.093196 0.032203 -0.669691 5.503997 -0.000000 -0.000004 -0.000000 0.039784 -1.024486 2.594793 0.040711 -0.752910 6.190411 0.000002 -0.000001 -0.000000 0.158182 -1.771455 6.528626 0.003758 -0.228955 1.879010 0.000001 0.000002 -0.000000 0.000000 -0.000001 0.000001 0.000000 -0.000001 0.000000 0.000000 -0.000001 0.000001 -0.000000 0.000000 -0.000000 -0.000000 0.000001 -0.000000 -0.000000 0.000000 -0.000000 -0.000000 0.000001 -0.000000 -0.000000 0.000000 -0.000000 -0.000000 0.000000 -0.000000 -0.000000 0.000000 -0.000000 -0.000000 0.000000 -0.000000 -0.000000 0.000000 -0.000000 -0.000000 0.000000 -0.000000 -0.000000 0.000000 -0.000000 0.000000 -0.000000 0.000001 -0.000001 0.000000 0.000001 
6.638105 141.088959 -7.776642 68.638606 9.613612 -5.881021 0.000001 0.000000 -0.000000 -39.830419 16.429059 36.168498 85.010467 -2.102593 -8.140272 10.767603 -0.280511 -10.706124 0.000001 0.000002 -0.000002 -0.000002 -0.000000 0.000001 -32.051933 -8.950010 -30.100176 73.026395 11.467938 8.834010 -2.112381 0.089435 24.687620 0.000001 -0.000001 0.000002 -0.000002 0.000001 -0.000001 17.954262 -4.581305 -2.170537 -0.640621 -0.940409 1.808903 -0.614613 -0.874494 1.855102 -6.456170 -0.591724 -2.621710 -6.456166 -0.591721 -2.621718 -0.000002 -0.000000 0.000000 -6.456111 -0.591748 -2.621699 -6.456203 -0.591695 -2.621719 0.000002 0.000001 0.000001 -0.000002 -0.000000 0.000000 0.704062 -5.751475 -3.935803 0.915322 -47.096436 -7.361200 0.000051 -106.925655 0.000052 44.220776 2.032915 14.860487 -6.256797 5.698470 7.394674 5.771052 14.502778 -0.848848 0.000001 -0.000005 -0.000002 0.393284 2.982437 -9.095823 0.059108 0.902100 -7.497132 0.000004 0.000001 0.000001 0.090337 1.663683 -3.479588 0.084490 1.077452 -8.965710 0.000000 -0.000003 -0.000002 0.018114 0.841773 -12.592074 0.104004 1.194684 -9.950967 -0.000001 -0.000001 -0.000001 0.952105 5.229354 -11.690346 0.035003 -3.259191 -7.114172 0.000002 -0.000002 0.000000 -0.000000 0.000000 0.000000 -0.000000 0.000000 0.000000 -0.000000 0.000000 0.000001 -0.000001 -0.000003 -0.000000 -0.000001 -0.000004 0.000000 -0.000001 -0.000003 -0.000000 -0.000001 -0.000004 0.000000 0.660002 4.692670 3.086423 -16.163641 52.825581 23.707363 -0.000043 111.133059 0.000042 43.333503 -24.215198 16.791622 -1.257533 0.666070 0.529800 -5.462557 -10.016549 -1.921167 -0.000003 -0.000001 -0.000004 -0.002823 1.597062 0.198866 0.012949 -0.425330 3.492413 0.000003 0.000003 -0.000002 0.000323 0.175726 -0.093210 0.032193 -0.669687 5.503999 0.000001 -0.000000 0.000000 0.039796 -1.024481 2.594773 0.040709 -0.752897 6.190419 -0.000002 -0.000001 -0.000002 0.158185 -1.771467 6.528618 0.003761 -0.228951 1.878994 0.000003 0.000003 -0.000001 0.000000 0.000000 0.000001 0.000000 0.000000 0.000001 0.000000 0.000000 0.000001 -0.000000 0.000001 -0.000000 -0.000000 0.000002 -0.000000 -0.000000 0.000001 -0.000000 -0.000000 0.000002 -0.000000 -0.000000 -0.000000 0.000000 -0.000000 -0.000000 0.000000 -0.000000 -0.000000 0.000000 -0.000000 -0.000000 0.000000 -0.000000 -0.000000 0.000000 -0.000000 -0.000000 0.000000 -0.000000 -0.000000 0.000000 0.000001 -0.000000 0.000000 0.000001 0.000000 -0.000000 
6.844482 141.386765 -6.221230 69.337048 9.328514 -6.000672 0.000001 0.000000 0.000001 -38.506797 17.452960 36.212478 80.099042 1.086220 -9.463561 5.901537 0.085125 -9.965278 0.000000 -0.000002 -0.000000 0.000001 0.000003 -0.000003 -32.106499 -9.858333 -30.397091 68.888564 10.671994 8.721302 -4.218707 -2.651139 22.522889 -0.000000 -0.000000 -0.000002 -0.000000 -0.000001 -0.000001 17.794974 -4.864491 -2.311954 -0.576628 -0.990980 1.870187 -0.547979 -0.923183 1.917812 -7.525519 -0.600897 -2.533394 -7.525494 -0.600896 -2.533397 0.000001 0.000000 0.000000 -7.525518 -0.600905 -2.533390 -7.525451 -0.600879 -2.533398 0.000003 -0.000000 0.000000 0.000001 0.000000 -0.000001 0.748649 -5.593620 -1.141560 -9.120222 -49.603655 -5.655612 -0.000034 -112.510312 -0.000047 47.271422 4.204692 14.349676 -6.256794 5.698470 7.394674 5.771051 14.502776 -0.848845 0.000003 -0.000002 -0.000003 0.393286 2.982438 -9.095824 0.059110 0.902094 -7.497133 0.000001 0.000000 0.000001 0.090335 1.663685 -3.479591 0.084465 1.077448 -8.965704 0.000002 0.000003 -0.000001 0.018113 0.841773 -12.592074 0.104015 1.194681 -9.950970 0.000000 -0.000001 0.000001 0.952104 5.229355 -11.690347 0.034993 -3.259197 -7.114175 0.000002 -0.000003 -0.000000 0.000000 0.000000 0.000000 0.000000 0.000000 0.000000 0.000000 0.000000 0.000000 0.000001 0.000003 0.000001 0.000001 0.000002 0.000001 0.000001 0.000003 0.000001 0.000001 0.000003 0.000001 0.595302 3.541947 0.865214 -26.825327 53.823578 23.614225 -0.000026 119.987641 0.000034 51.186674 -26.156565 22.940773 -1.257528 0.666072 0.529808 -5.462559 -10.016552 -1.921174 -0.000002 0.000001 -0.000000 -0.002820 1.597083 0.198854 0.012971 -0.425348 3.492422 -0.000000 0.000000 0.000002 0.000297 0.175738 -0.093211 0.032190 -0.669690 5.504002 0.000001 0.000001 0.000001 0.039797 -1.024474 2.594776 0.040715 -0.752905 6.190420 0.000001 0.000001 -0.000000 0.158183 -1.771460 6.528626 0.003761 -0.228951 1.879001 0.000001 -0.000002 0.000003 -0.000001 -0.000000 -0.000000 -0.000002 -0.000000 -0.000000 -0.000001 -0.000000 -0.000000 0.000000 -0.000003 -0.000000 0.000000 -0.000002 -0.000000 0.000000 -0.000003 -0.000000 0.000000 -0.000002 -0.000000 -0.000000 -0.000000 0.000000 -0.000000 -0.000000 0.000000 -0.000000 -0.000000 0.000000 -0.000000 -0.000000 0.000000 -0.000000 -0.000000 0.000000 -0.000000 -0.000000 0.000000 -0.000000 -0.000000 0.000000 -0.000000 0.000000 -0.000000 0.000001 0.000000 0.000001 
7.078093 141.627396 -4.664574 70.331810 9.047135 -6.193669 0.000000 -0.000000 0.000000 -36.989883 17.738348 35.888703 74.830999 4.789431 -10.037528 2.244572 0.315668 -9.310034 0.000002 0.000000 0.000000 -0.000001 0.000001 0.000001 -31.669487 -10.591848 -30.791391 64.289033 6.911019 8.351634 -5.498248 -2.590254 20.639162 0.000000 -0.000000 -0.000000 0.000001 0.000001 -0.000000 17.389347 -5.045422 -2.425124 -0.472410 -1.031159 2.025371 -0.440486 -0.958728 2.072656 -8.460415 -0.595784 -2.587505 -8.460390 -0.595783 -2.587509 -0.000000 0.000000 -0.000000 -8.460381 -0.595784 -2.587506 -8.460468 -0.595794 -2.587508 -0.000002 0.000000 -0.000002 -0.000000 0.000000 -0.000000 0.724179 -4.693210 1.526346 -23.680447 -51.536902 -7.809923 -0.000001 -114.956619 0.000002 49.036940 6.806175 9.619241 -6.256793 5.698465 7.394672 5.771050 14.502781 -0.848843 0.000001 0.000003 -0.000002 0.393287 2.982434 -9.095824 0.059105 0.902108 -7.497132 -0.000001 -0.000000 0.000002 0.090337 1.663683 -3.479591 0.084470 1.077440 -8.965709 -0.000002 0.000002 0.000001 0.018114 0.841774 -12.592074 0.104013 1.194687 -9.950965 -0.000001 0.000001 0.000002 0.952109 5.229349 -11.690350 0.035000 -3.259191 -7.114171 0.000001 -0.000003 0.000001 0.000000 -0.000001 -0.000000 0.000000 -0.000001 -0.000000 -0.000001 -0.000001 0.000000 0.000001 -0.000001 -0.000001 0.000001 -0.000002 -0.000001 0.000001 -0.000001 -0.000001 0.000002 -0.000001 -0.000000 0.441445 1.766856 -1.036077 -41.280499 53.208987 25.820900 0.000022 124.737805 -0.000022 55.992771 -27.049649 27.894146 -1.257529 0.666072 0.529806 -5.462555 -10.016551 -1.921165 -0.000002 0.000000 -0.000000 -0.002821 1.597074 0.198863 0.012962 -0.425340 3.492415 -0.000000 0.000003 0.000001 0.000307 0.175721 -0.093206 0.032193 -0.669692 5.504007 -0.000000 -0.000000 -0.000003 0.039793 -1.024484 2.594775 0.040707 -0.752895 6.190415 0.000002 0.000001 0.000001 0.158185 -1.771473 6.528621 0.003757 -0.228946 1.879006 -0.000001 -0.000000 0.000000 0.000001 0.000000 -0.000000 -0.000001 0.000000 0.000001 0.000001 0.000000 -0.000000 -0.000000 -0.000001 -0.000001 -0.000000 0.000000 -0.000001 -0.000000 -0.000001 -0.000001 -0.000000 -0.000000 -0.000001 0.000000 -0.000000 0.000000 0.000000 -0.000000 0.000000 0.000000 -0.000000 0.000000 0.000000 -0.000000 0.000000 0.000000 -0.000000 0.000000 0.000000 -0.000000 0.000000 0.000000 -0.000000 0.000000 -0.000000 0.000000 0.000001 0.000000 -0.000000 0.000000 
